<svg xmlns="http://www.w3.org/2000/svg" xmlns:xlink="http://www.w3.org/1999/xlink" viewBox="0 0 32 32"><defs><style>.cls-1{fill:none;}.cls-2{fill:#2564af;}.cls-3{fill:#1e4784;}.cls-4{clip-path:url(#clip-path);}</style><clipPath id="clip-path"><path class="cls-1" d="M16,32C28,25,32,18,32,0H16Z"/></clipPath></defs><g id="Calque_2" data-name="Calque 2"><g id="Defense"><path class="cls-2" d="M16,29.67C5.5,23.29,2.27,17,2,2H30C29.73,17,26.5,23.29,16,29.67Z"/><path class="cls-3" d="M27.92,4C27.4,17.1,24,22.23,16,27.32,8,22.23,4.6,17.1,4.08,4H27.92M32,0H0C0,18,4,25,16,32,28,25,32,18,32,0Z"/><g class="cls-4"><path class="cls-3" d="M16,29.67C5.5,23.29,2.27,17,2,2H30C29.73,17,26.5,23.29,16,29.67Z"/><path class="cls-2" d="M27.92,4C27.4,17.1,24,22.23,16,27.32,8,22.23,4.6,17.1,4.08,4H27.92M32,0H0C0,18,4,25,16,32,28,25,32,18,32,0Z"/></g></g></g></svg>