<svg xmlns="http://www.w3.org/2000/svg" viewBox="0 0 615.36 547.92"><defs><style>.cls-1{fill:#fff;}</style></defs><g id="Calque_2" data-name="Calque 2"><g id="Units"><path class="cls-1" d="M555.94,353l-99.33,79A60.18,60.18,0,0,1,419.17,445H291.06c-23.32,0-23.32-34.21,0-34.21h83.41c48.57,0,48.57-68.34,0-68.34H203.36a121.2,121.2,0,0,0-76.64,27.31l-50.25,41H17.36A17.36,17.36,0,0,0,0,428.17V530.55a17.37,17.37,0,0,0,17.36,17.37H396.71a73.45,73.45,0,0,0,46-16.19l161.94-130C637.13,369.23,588.42,320.52,555.94,353Z"/><path class="cls-1" d="M239.66,239.66a102.72,102.72,0,0,0,102.64-103s-34.05,34.89-103.15,34.89c-18.56,0-33.53-19.06-33.53-34V102.3c0-18,15.14-33.53,33.53-33.53H376.68c18.38,0,33.53,15.49,33.53,33.53v35.23c0,36.09-18.3,71.07-44.34,96.85s-58,56.68-58,56.68l19.41-1.27c82-4.34,151.66-69.45,151.66-152.26V102.3C479,46.47,432.85,0,376.68,0H239.15C183,0,136.85,46.47,136.85,102.3v35.23C136.85,192,185,239.66,239.66,239.66Z"/></g></g></svg>