<svg xmlns="http://www.w3.org/2000/svg" viewBox="0 0 340.9 340.9"><defs><style>.cls-1{fill:#fff;}</style></defs><g id="Calque_2" data-name="Calque 2"><g id="Units"><path class="cls-1" d="M328.4.22,241.73,18a9.75,9.75,0,0,0-4.94,16.45l23.29,23.29L93.63,224.17,62.08,213.29A17.49,17.49,0,0,0,44,217.46L4.47,257a15.24,15.24,0,0,0,6.17,25.3l36.41,11.56,11.55,36.4a15.24,15.24,0,0,0,25.31,6.17l39.54-39.54a17.48,17.48,0,0,0,4.16-18.06l-10.88-31.55L283.19,80.82l23.29,23.3a9.75,9.75,0,0,0,16.45-4.94L340.69,12.5A10.41,10.41,0,0,0,328.4.22Z"/><path class="cls-1" d="M271.58,121.56,241.25,151.9c9.61,19,15.18,39.38,14.95,61.17s-4.59,42.59-15.14,60.81L180.16,213l-30.33,30.33,94.48,94.48a10.4,10.4,0,0,0,14.69,0l15.64-15.65a10.37,10.37,0,0,0,0-14.68l-3.06-3.07c17.21-27,26.23-59.46,26.59-91.95A161.4,161.4,0,0,0,271.58,121.56Z"/><path class="cls-1" d="M97.6,191.07l30.33-30.33L67,99.84c18.22-10.55,39-14.9,60.81-15.14S170,90,189,99.66l30.33-30.33a161.43,161.43,0,0,0-90.87-26.6c-32.5.36-65,9.39-91.95,26.6l-3.07-3.07a10.4,10.4,0,0,0-14.69,0L3.12,81.91a10.37,10.37,0,0,0,0,14.68Z"/></g></g></svg>