<svg xmlns="http://www.w3.org/2000/svg" viewBox="0 0 367.05 366.73"><defs><style>.cls-1{fill:#f4f482;}</style></defs><g id="Calque_2" data-name="Calque 2"><g id="Units"><path class="cls-1" d="M312.48,220.21l-93.37,93.37a10.62,10.62,0,0,0,0,15L231.47,341a15.37,15.37,0,0,0,18.64,2.38l37.54-22,41.93,41.93a11.81,11.81,0,0,0,16.7,0l15.89-15.89a11.81,11.81,0,0,0,0-16.7l-41.93-41.93,22-37.54a15.37,15.37,0,0,0-2.38-18.64l-12.37-12.36A10.62,10.62,0,0,0,312.48,220.21Z"/><path class="cls-1" d="M66.85,10.63,11.67.89A9.94,9.94,0,0,0,.14,12.33L9.53,68,220.85,279.27,278.17,222Z"/><path class="cls-1" d="M355.46.14,299.84,9.53,199.07,110.3l57.32,57.32L357.16,66.85l9.74-55.18A9.94,9.94,0,0,0,355.46.14Z"/><path class="cls-1" d="M109.2,200.17l-37,37-18-18a10.63,10.63,0,0,0-15,0L26.81,231.47a15.36,15.36,0,0,0-2.39,18.64l22,37.54L4.52,329.58a11.81,11.81,0,0,0,0,16.7l15.89,15.89a11.81,11.81,0,0,0,16.7,0L79,320.24l37.54,22a15.37,15.37,0,0,0,18.64-2.38l12.36-12.37a10.62,10.62,0,0,0,0-15l-18-18,37-37Z"/></g></g></svg>