<?xml version="1.0" encoding="utf-8"?>
<!-- Generator: Adobe Illustrator 24.3.0, SVG Export Plug-In . SVG Version: 6.00 Build 0)  -->
<svg version="1.1" id="Calque_1" focusable="false" xmlns="http://www.w3.org/2000/svg" xmlns:xlink="http://www.w3.org/1999/xlink"
	 x="0px" y="0px" viewBox="0 0 640 512" style="enable-background:new 0 0 640 512;" xml:space="preserve">
<path d="M18.3,255.8L192,224l-91.3,68.7c-10.1,10-2.9,27.3,11.3,27.3h222.7c-9.4-26.4-14.7-54.5-14.7-83.4v-42.3l-119.7-87.6
	c-23.8-15.9-55.3-14-77.1,4.6L5.8,227.6C-6.6,238,2.4,258.1,18.3,255.8z M575.2,289.9l-100.7-50.3c-16.3-8.1-26.5-24.7-26.5-42.9
	V160h64l28.1,22.6c6,6,14.1,9.4,22.6,9.4h31c12.1,0,23.2-6.8,28.6-17.7l14.3-28.6c5.4-10.8,4.3-23.8-3-33.5l-74.5-99.4
	C553,4.7,543.5,0,533.5,0H296c-7.1,0-10.7,8.6-5.7,13.6L352,64l-59.6,24.8c-5.9,2.9-5.9,11.4,0,14.3L352,128v108.6
	c0,72.1,36,139.4,96,179.4c-195.6,6.8-344.6,41-434.1,60.9c-8.1,1.8-13.9,9-13.9,17.3C0,504,7.9,512,17.8,512h499.1
	c63.3,0,119.6-47.6,123-110.8C642.3,354,617.1,310.8,575.2,289.9L575.2,289.9z M489.2,66.3l45.7,11.4c-2.8,10.9-12.5,18.9-24.1,18.3
	C497.7,95.2,484.9,83.4,489.2,66.3L489.2,66.3z"/>
</svg>
