<svg xmlns="http://www.w3.org/2000/svg" viewBox="0 0 249.9 221.87"><defs><style>.cls-1{fill:#fff;}</style></defs><g id="Calque_2" data-name="Calque 2"><g id="Units"><g id="Heavy"><path class="cls-1" d="M221.21,168.87c-3-14-13-41-13-77C208.21,39.87,125,0,125,0S41.7,39.87,41.7,91.87c0,36-10,63-13,77-1.73,8.07,1,14,7,16s76,37,76,37V111.27l-42-13.4v-14H180.21v14l-42,13.4v110.6s70-35,76-37S222.93,176.94,221.21,168.87Z"/><path class="cls-1" d="M221.72,0V98.9c0,7.15,6.49,12,13.89,12,9.19,0,15.89-7.23,14-15.27C248.55,91.43,221.72,0,221.72,0Z"/><path class="cls-1" d="M28.18,0V98.9c0,7.15-6.48,12-13.89,12-9.19,0-15.89-7.23-14-15.27C1.36,91.43,28.18,0,28.18,0Z"/></g></g></g></svg>