<?xml version="1.0" encoding="utf-8"?>
<!-- Generator: Adobe Illustrator 24.3.0, SVG Export Plug-In . SVG Version: 6.00 Build 0)  -->
<svg version="1.1" id="Calque_1" xmlns="http://www.w3.org/2000/svg" xmlns:xlink="http://www.w3.org/1999/xlink" x="0px" y="0px"
	 viewBox="0 0 249.9 221.9" style="enable-background:new 0 0 249.9 221.9;" xml:space="preserve">
<g id="Calque_2_1_">
	<g id="Units">
		<g id="Heavy">
			<path d="M221.2,168.9c-3-14-13-41-13-77C208.2,39.9,125,0,125,0S41.7,39.9,41.7,91.9c0,36-10,63-13,77c-1.7,8.1,1,14,7,16
				s76,37,76,37V111.3l-42-13.4v-14h110.5v14l-42,13.4v110.6c0,0,70-35,76-37S222.9,176.9,221.2,168.9z"/>
			<path d="M221.7,0v98.9c0,7.2,6.5,12,13.9,12c9.2,0,15.9-7.2,14-15.3C248.6,91.4,221.7,0,221.7,0z"/>
			<path d="M28.2,0v98.9c0,7.2-6.5,12-13.9,12c-9.2,0-15.9-7.2-14-15.3C1.4,91.4,28.2,0,28.2,0z"/>
		</g>
	</g>
</g>
</svg>
