<?xml version="1.0" encoding="utf-8"?>
<!-- Generator: Adobe Illustrator 24.3.0, SVG Export Plug-In . SVG Version: 6.00 Build 0)  -->
<svg version="1.1" id="Calque_1" focusable="false" xmlns="http://www.w3.org/2000/svg" xmlns:xlink="http://www.w3.org/1999/xlink"
	 x="0px" y="0px" viewBox="0 0 512 512" style="enable-background:new 0 0 512 512;" xml:space="preserve">
<style type="text/css">
	.st0{fill:#FFFFFF;}
</style>
<path class="st0" d="M416,128h-96V32c0-17.7-14.3-32-32-32h-64c-17.7,0-32,14.3-32,32v96H96c-17.7,0-32,14.3-32,32v64
	c0,17.7,14.3,32,32,32h96v224c0,17.7,14.3,32,32,32h64c17.7,0,32-14.3,32-32V256h96c17.7,0,32-14.3,32-32v-64
	C448,142.3,433.7,128,416,128z"/>
</svg>
