<?xml version="1.0" encoding="utf-8"?>
<!-- Generator: Adobe Illustrator 24.3.0, SVG Export Plug-In . SVG Version: 6.00 Build 0)  -->
<svg version="1.1" id="Calque_1" focusable="false" xmlns="http://www.w3.org/2000/svg" xmlns:xlink="http://www.w3.org/1999/xlink"
	 x="0px" y="0px" viewBox="0 0 512 512" style="enable-background:new 0 0 512 512;" xml:space="preserve">
<style type="text/css">
	.st0{opacity:0.1;}
</style>
<path class="st0" d="M499.7,369.7c-19.1-2.1-37.4-9.3-51.5-20.4c-12.5-9.9-30.4-10-42.9,0c-33.7,27-95.3,27-129.6-1.3
	c-12-10-29.3-8.1-41.5,1.6c-33.8,26.8-95.1,26.7-129.1-1.5c-12-10-29.6-7.9-41.9,1.8c-13.8,10.8-32,17.9-51.3,19.9
	c-7,0.7-12.1,6.9-12.1,14v28.6c0,8.1,6.8,14.9,14.8,14.2c25.6-2.2,49.9-10.1,70.6-23c50.2,30.8,121.8,30.3,170.7,0
	c50.2,30.8,121.8,30.3,170.7,0c20.7,12.6,45.3,20.7,70.3,22.9c8.1,0.7,14.8-6.1,14.8-14.2v-28.1
	C512.1,377.1,506.9,370.5,499.7,369.7z M499.7,241.7c-19.1-2.1-37.4-9.3-51.5-20.4c-12.5-9.9-30.4-10-42.9,0
	c-33.7,27-95.3,27-129.6-1.3c-12-10-29.3-8.1-41.5,1.6c-33.8,26.8-95.1,26.7-129.1-1.5c-12-10-29.6-7.9-41.9,1.8
	c-13.8,10.8-32,17.9-51.3,19.9c-7,0.7-12.1,6.9-12.1,14v28.6c0,8.1,6.8,14.9,14.8,14.2c25.6-2.2,49.9-10.1,70.6-23
	c50.2,30.8,121.8,30.3,170.7,0c50.2,30.8,121.8,30.3,170.7,0c20.7,12.6,45.3,20.7,70.3,22.9c8.1,0.7,14.8-6.1,14.8-14.2v-28.1
	C512.1,249.1,506.9,242.5,499.7,241.7L499.7,241.7z M499.7,113.6c-19.1-2.2-37.4-9.3-51.5-20.4c-12.5-9.9-30.4-10-42.9,0
	c-33.7,27-95.3,27-129.6-1.3c-12-10-29.3-8.1-41.5,1.6c-33.8,26.8-95.1,26.7-129.1-1.5c-12-10-29.6-7.9-41.9,1.8
	c-13.8,10.8-32,17.9-51.3,19.9c-7,0.7-12.1,6.9-12.1,14v28.6c0,8.1,6.8,14.9,14.8,14.2c25.6-2.2,49.9-10.1,70.6-23
	c50.2,30.8,121.8,30.3,170.7,0c50.2,30.8,121.8,30.3,170.7,0c20.7,12.6,45.3,20.7,70.3,22.9c8.1,0.7,14.8-6.1,14.8-14.2v-28.1
	C512.1,121,506.9,114.4,499.7,113.6L499.7,113.6z"/>
</svg>
