<?xml version="1.0" encoding="utf-8"?>
<!-- Generator: Adobe Illustrator 24.3.0, SVG Export Plug-In . SVG Version: 6.00 Build 0)  -->
<svg version="1.1" id="Calque_1" xmlns="http://www.w3.org/2000/svg" xmlns:xlink="http://www.w3.org/1999/xlink" x="0px" y="0px"
	 viewBox="0 0 340.9 340.9" style="enable-background:new 0 0 340.9 340.9;" xml:space="preserve">
<g id="Calque_2_1_">
	<g id="Units">
		<path d="M328.4,0.2L241.7,18c-5.3,1.1-8.7,6.2-7.6,11.5c0.4,1.9,1.3,3.6,2.7,4.9l23.3,23.3L93.6,224.2l-31.5-10.9
			c-6.3-2.2-13.3-0.6-18.1,4.2L4.5,257c-6,6-5.9,15.6,0,21.6c1.7,1.7,3.8,3,6.2,3.7L47,293.9l11.5,36.4c2.5,8,11.1,12.5,19.1,9.9
			c2.3-0.7,4.5-2,6.2-3.8l39.5-39.5c4.7-4.7,6.3-11.7,4.2-18.1l-10.9-31.6L283.2,80.8l23.3,23.3c3.8,3.8,10,3.8,13.8,0
			c1.4-1.4,2.3-3.1,2.7-4.9l17.8-86.7c1.1-5.6-2.5-11.1-8.1-12.3C331.2-0.1,329.8-0.1,328.4,0.2z"/>
		<path d="M271.6,121.6l-30.3,30.3c9.6,19,15.2,39.4,15,61.2s-4.6,42.6-15.1,60.8L180.2,213l-30.3,30.3l94.5,94.5
			c4.1,4,10.6,4,14.7,0l15.6-15.6c4.1-4,4.1-10.6,0-14.7c0,0,0,0,0,0l-3.1-3.1c17.2-27,26.2-59.5,26.6-91.9
			C298.6,180.2,289.3,148.5,271.6,121.6z"/>
		<path d="M97.6,191.1l30.3-30.3L67,99.8c18.2-10.6,39-14.9,60.8-15.1S170,90,189,99.7l30.3-30.3c-27-17.8-58.6-27-90.9-26.6
			c-32.5,0.4-65,9.4-91.9,26.6l-3.1-3.1c-4.1-4-10.6-4-14.7,0L3.1,81.9c-4.1,4-4.1,10.6,0,14.7c0,0,0,0,0,0L97.6,191.1z"/>
	</g>
</g>
</svg>
