<?xml version="1.0" encoding="utf-8"?>
<!-- Generator: Adobe Illustrator 25.0.1, SVG Export Plug-In . SVG Version: 6.00 Build 0)  -->
<svg version="1.1" id="Calque_1" focusable="false" xmlns="http://www.w3.org/2000/svg" xmlns:xlink="http://www.w3.org/1999/xlink"
	 x="0px" y="0px" viewBox="0 0 2368.4 2368.4" style="enable-background:new 0 0 2368.4 2368.4;" xml:space="preserve">
<style type="text/css">
	.st0{opacity:0.1;fill:#FFFFFF;}
</style>
<path class="st0" d="M1184.2,0C530.1,0,0,464,0,1036.2c0,324.3,170.7,613.4,437.1,803.5c44.4,31.9,70.3,83.7,62.4,138.3l-43.5,306.2
	c-6.5,44.4,27.8,84.2,72.6,84.2h359.4v-259c0-20.4,16.7-37,37-37h74c20.4,0,37,16.7,37,37v259h296v-259c0-20.4,16.7-37,37-37h74
	c20.4,0,37,16.7,37,37v259h359.4c44.9,0,79.1-39.8,72.6-84.2l-43.5-306.2c-7.9-54.1,17.6-106.4,62.4-138.3
	c266.4-190.1,437.1-479.2,437.1-803.5C2368.4,464,1838.3,0,1184.2,0z M740.1,1480.2c-163.3,0-296-132.8-296-296s132.8-296,296-296
	s296,132.8,296,296C1036.2,1347.5,903.4,1480.2,740.1,1480.2z M1628.2,1480.2c-163.3,0-296-132.8-296-296s132.8-296,296-296
	s296,132.8,296,296C1924.3,1347.5,1791.5,1480.2,1628.2,1480.2z"/>
</svg>
