<?xml version="1.0" encoding="utf-8"?>
<!-- Generator: Adobe Illustrator 25.0.1, SVG Export Plug-In . SVG Version: 6.00 Build 0)  -->
<svg version="1.1" id="Calque_1" focusable="false" xmlns="http://www.w3.org/2000/svg" xmlns:xlink="http://www.w3.org/1999/xlink"
	 x="0px" y="0px" viewBox="0 0 512 512" style="enable-background:new 0 0 512 512;" xml:space="preserve">
<style type="text/css">
	.st0{fill:#FFFFFF;}
</style>
<path class="st0" d="M507.1,287.9h-29.5c-2.8,0-5,2-5,4.6v32h-39.4V146.2c0-2.6-2.2-4.6-5-4.6h-29.5c-2.8,0-5,2-5,4.6v32h-39.4v-32
	c0-2.6-2.2-4.6-5-4.6H320c-2.8,0-5,2-5,4.6v32h-39.4v-32c0-6-8.6-4.6-12.6-4.6v-38c8.9-2,18.4-3.4,27.7-3.4
	c11.7,0,22.5,4.3,33.8,4.3c5,0,29.8-1.1,29.8-8v-60c0-2.6-2.2-4.6-5-4.6c-5.5,0-16.3,4.3-25.8,4.3c-10.4,0-22.5-4.3-35.1-4.3
	c-8.6,0-17.2,1.1-25.5,2.9v-4.9c5.8-2.6,9.8-8.3,9.8-14.3c0-20.7-33.8-20.8-33.8,0c0,6,4,11.7,9.8,14.3v111.7
	c-4,0-12.6-1.4-12.6,4.6v32h-39.4v-32c0-2.6-2.2-4.6-5-4.6h-29.5c-2.8,0-5,2-5,4.6v32h-39.1v-32c0-2.6-2.2-4.6-5-4.6H83.7
	c-2.8,0-5,2-5,4.6v178.3H39.3v-32c0-2.6-2.2-4.6-5-4.6H4.9c-2.8,0-5,2-5,4.6V512h197v-96c0-72.6,118.1-72.6,118.1,0v96h197V292.5
	C512.1,289.9,509.9,287.9,507.1,287.9L507.1,287.9z M196.9,283.4c0,2.6-2.2,4.6-5,4.6h-29.5c-2.8,0-5-2-5-4.6v-64
	c0-2.6,2.2-4.6,5-4.6h29.5c2.8,0,5,2,5,4.6V283.4z M354.5,283.4c0,2.6-2.2,4.6-5,4.6h-29.5c-2.8,0-5-2-5-4.6v-64
	c0-2.6,2.2-4.6,5-4.6h29.5c2.8,0,5,2,5,4.6V283.4z"/>
</svg>
