<?xml version="1.0" encoding="utf-8"?>
<!-- Generator: Adobe Illustrator 24.3.0, SVG Export Plug-In . SVG Version: 6.00 Build 0)  -->
<svg version="1.1" id="Calque_1" focusable="false" xmlns="http://www.w3.org/2000/svg" xmlns:xlink="http://www.w3.org/1999/xlink"
	 x="0px" y="0px" viewBox="0 0 512 512" style="enable-background:new 0 0 512 512;" xml:space="preserve">
<style type="text/css">
	.st0{fill:#FFFFFF;}
</style>
<path class="st0" d="M509.8,332.5l-69.9-164.3c-14.9-41.2-50.4-71-93-79.2c18-10.6,46.3-35.9,34.2-82.3c-1.3-5-7.1-7.9-12-6.1
	L166.9,76.3C35.9,123.4,0,238.9,0,398.8V480c0,17.7,14.3,32,32,32h236.2c23.8,0,39.3-25,28.6-46.3L256,384v-0.7
	c-45.6-3.5-84.6-30.7-104.3-69.6c-1.6-3.1-0.9-6.9,1.6-9.3l12.1-12.1c3.9-3.9,10.6-2.7,12.9,2.4c14.8,33.7,48.2,57.4,87.4,57.4
	c17.2,0,33-5.1,46.8-13.2l46,63.9c6,8.4,15.7,13.3,26,13.3h50.3c8.5,0,16.6-3.4,22.6-9.4l45.3-39.8
	C511.6,357.8,514.4,344.3,509.8,332.5L509.8,332.5z M328,224c-13.3,0-24-10.7-24-24s10.7-24,24-24s24,10.7,24,24S341.3,224,328,224z
	"/>
</svg>
