<svg xmlns="http://www.w3.org/2000/svg" viewBox="0 0 333.94 333.94"><defs><style>.cls-1{fill:#fff;}</style></defs><g id="Calque_2" data-name="Calque 2"><g id="Units"><path class="cls-1" d="M322.15.13,260.94,10,111.82,159.12l63,63L324,73l9.86-61.21A10.18,10.18,0,0,0,322.15.13Z"/><path class="cls-1" d="M71.89,148.07a10.31,10.31,0,0,0-14.57,0L45.53,159.86a13.09,13.09,0,0,0-1.48,16.72l34.31,49.21L43.57,260.58,28,251.33a11.76,11.76,0,0,0-14.31,1.8l-11,11a9,9,0,0,0,0,12.73L57.07,331.3a9,9,0,0,0,12.73,0l11-11A11.76,11.76,0,0,0,82.61,306l-9.25-15.61,34.79-34.79,49.21,34.31a13.09,13.09,0,0,0,16.72-1.48l11.79-11.79a10.31,10.31,0,0,0,0-14.57Z"/></g></g></svg>