<?xml version="1.0" encoding="utf-8"?>
<!-- Generator: Adobe Illustrator 24.3.0, SVG Export Plug-In . SVG Version: 6.00 Build 0)  -->
<svg version="1.1" id="Calque_1" xmlns="http://www.w3.org/2000/svg" xmlns:xlink="http://www.w3.org/1999/xlink" x="0px" y="0px"
	 viewBox="0 0 333.9 333.9" style="enable-background:new 0 0 333.9 333.9;" xml:space="preserve">
<g id="Calque_2_1_">
	<g id="Units">
		<path d="M322.1,0.1L260.9,10L111.8,159.1l63,63L324,73l9.9-61.2c0.9-5.6-2.9-10.8-8.4-11.7C324.3-0.1,323.2,0,322.1,0.1z"/>
		<path d="M71.9,148.1c-4-4-10.5-4-14.6,0l-11.8,11.8c-4.5,4.5-5.1,11.5-1.5,16.7l34.3,49.2l-34.8,34.8L28,251.3
			c-4.6-2.7-10.5-2-14.3,1.8l-11,11c-3.5,3.5-3.5,9.2,0,12.7c0,0,0,0,0,0l54.4,54.4c3.5,3.5,9.2,3.5,12.7,0c0,0,0,0,0,0l11-11
			c3.8-3.8,4.5-9.7,1.8-14.3l-9.3-15.6l34.8-34.8l49.2,34.3c5.2,3.6,12.2,3,16.7-1.5l11.8-11.8c4-4,4-10.5,0-14.6L71.9,148.1z"/>
	</g>
</g>
</svg>
