<?xml version="1.0" encoding="utf-8"?>
<!-- Generator: Adobe Illustrator 25.0.1, SVG Export Plug-In . SVG Version: 6.00 Build 0)  -->
<svg version="1.1" id="Calque_1" focusable="false" xmlns="http://www.w3.org/2000/svg" xmlns:xlink="http://www.w3.org/1999/xlink"
	 x="0px" y="0px" viewBox="0 0 512 512" style="enable-background:new 0 0 512 512;" xml:space="preserve">
<style type="text/css">
	.st0{opacity:0.1;fill:#FFFFFF;}
</style>
<path class="st0" d="M256,0C114.6,0,0,114.7,0,256c0,141.4,114.6,256,256,256s256-114.6,256-256C512,114.7,397.4,0,256,0z
	 M256,113.5c23.9,0,43.4,19.4,43.4,43.4s-19.4,43.4-43.4,43.4s-43.4-19.4-43.4-43.4S232.1,113.5,256,113.5z M313.8,375.7
	c0,6.8-5.5,12.4-12.4,12.4h-90.8c-6.8,0-12.4-5.5-12.4-12.4V351c0-6.8,5.5-12.4,12.4-12.4H223v-66.1h-12.4
	c-6.8,0-12.4-5.5-12.4-12.4v-24.8c0-6.8,5.5-12.4,12.4-12.4h66.1c6.8,0,12.4,5.5,12.4,12.4v103.2h12.4c6.8,0,12.4,5.5,12.4,12.4
	V375.7z"/>
</svg>
