<?xml version="1.0" encoding="utf-8"?>
<!-- Generator: Adobe Illustrator 25.0.1, SVG Export Plug-In . SVG Version: 6.00 Build 0)  -->
<svg version="1.1" id="Calque_1" focusable="false" xmlns="http://www.w3.org/2000/svg" xmlns:xlink="http://www.w3.org/1999/xlink"
	 x="0px" y="0px" viewBox="0 0 512 512" style="enable-background:new 0 0 512 512;" xml:space="preserve">
<style type="text/css">
	.st0{fill:#FFFFFF;}
</style>
<path class="st0" d="M128.7,195.3l-82.8-51.8c-8-5-19-2.2-22.9,6.4c-12.9,28.1-20.5,58.4-22.4,89.3c-0.6,9.1,7.1,16.7,16.1,16.7
	h97.1c8,0,14.1-6.3,15-14.2c1.1-9.3,3.2-18.3,6.2-26.9C137.6,207.6,135.3,199.4,128.7,195.3L128.7,195.3z M319,8
	c-20.2-5.2-41.3-8-63-8s-42.9,2.8-63,8c-9.2,2.4-13.9,12.6-10.4,21.4l37.5,104c2.3,6.3,8.3,10.6,15.1,10.6h41.8
	c6.8,0,12.8-4.2,15-10.6l37.5-104C332.9,20.6,328.2,10.4,319,8L319,8z M112,288H16c-8.8,0-16,7.2-16,16v64c0,8.8,7.2,16,16,16h96
	c8.8,0,16-7.2,16-16v-64C128,295.2,120.8,288,112,288z M112,416H16c-8.8,0-16,7.2-16,16v64c0,8.8,7.2,16,16,16h96
	c8.8,0,16-7.2,16-16v-64C128,423.2,120.8,416,112,416z M189.3,132.3L153,41.5c-3.5-8.8-14.1-13-22.4-8.3C103.2,48.7,79,68.9,59,93.1
	c-6.1,7.3-3.8,18.5,4.2,23.5l82.9,51.8c6.5,4.1,14.7,2.6,20.1-2.8c5.2-5.1,10.8-9.9,16.8-14.1C189.3,147.2,192.2,139.4,189.3,132.3
	L189.3,132.3z M398.2,256h97.1c9.1,0,16.7-7.6,16.1-16.7c-2-30.9-9.6-61.1-22.5-89.3c-3.9-8.6-14.9-11.5-22.9-6.4l-82.8,51.8
	c-6.6,4.1-8.9,12.2-6.3,19.6c3,8.6,5.1,17.6,6.2,26.9C384.1,249.8,390.2,256,398.2,256z M453,93.1c-20-24.2-44.3-44.5-71.6-59.9
	c-8.3-4.7-18.9-0.5-22.4,8.3l-36.3,90.8c-2.9,7.1,0,14.9,6.3,19.3c6,4.2,11.6,8.9,16.8,14.1c5.4,5.4,13.6,6.9,20.1,2.8l82.9-51.8
	C456.9,111.6,459.1,100.4,453,93.1L453,93.1z M496,288h-96c-8.8,0-16,7.2-16,16v64c0,8.8,7.2,16,16,16h96c8.8,0,16-7.2,16-16v-64
	C512,295.2,504.8,288,496,288z M496,416h-96c-8.8,0-16,7.2-16,16v64c0,8.8,7.2,16,16,16h96c8.8,0,16-7.2,16-16v-64
	C512,423.2,504.8,416,496,416z M240,177.6V472c0,4.4,3.6,8,8,8h16c4.4,0,8-3.6,8-8V177.6c-5.2-0.9-10.5-1.6-16-1.6
	S245.2,176.7,240,177.6z M176,219.1V472c0,4.4,3.6,8,8,8h16c4.4,0,8-3.6,8-8V189.4C195.2,196.8,184.2,206.8,176,219.1L176,219.1z
	 M304,189.4V472c0,4.4,3.6,8,8,8h16c4.4,0,8-3.6,8-8V219.1C327.8,206.8,316.8,196.8,304,189.4L304,189.4z"/>
</svg>
