<svg xmlns="http://www.w3.org/2000/svg" viewBox="0 0 176.01 175.84"><defs><style>.cls-1{fill:#aa7b5c;}</style></defs><g id="Calque_2" data-name="Calque 2"><g id="Calque_3" data-name="Calque 3"><path class="cls-1" d="M88,0H54.53a5.75,5.75,0,0,0-4.76,9L66,33h44L126.24,9a5.75,5.75,0,0,0-4.77-9Z"/><path class="cls-1" d="M110.21,43.87H65.79C-3.19,82.93,0,136.42,0,142.85c0,18.85,16.5,33,37.71,33H138.28c21.21,0,37.73-14.14,37.7-33C176,136.42,179.2,82.93,110.21,43.87ZM93.53,139.4v6.06a2.83,2.83,0,0,1-2.82,2.82h-6.5a2.82,2.82,0,0,1-2.82-2.82v-5.93a19.92,19.92,0,0,1-12.33-4.33,2.43,2.43,0,0,1-.19-3.56l5-5.15a2.42,2.42,0,0,1,3.22-.26,6.16,6.16,0,0,0,4.32,1.41H93.65a4.61,4.61,0,0,0,4.28-4.79c0-2.57-1.18-4.25-3.29-4.85l-7.18-2.07L76.72,113c-6.75-1.84-11.9-8.85-11.9-16.28A16.54,16.54,0,0,1,81.39,80.06V74a2.82,2.82,0,0,1,2.82-2.82h6.5A2.82,2.82,0,0,1,93.53,74v5.92a20,20,0,0,1,12.32,4.33,2.42,2.42,0,0,1,.19,3.56l-5,5.16a2.42,2.42,0,0,1-3.21.25,6.24,6.24,0,0,0-4.32-1.41H81.27A4.62,4.62,0,0,0,77,96.6c0,2.57,1.18,4.25,3.29,4.86l7.19,2.07,10.73,2.92c6.75,1.84,11.9,8.86,11.9,16.28A16.54,16.54,0,0,1,93.53,139.4Z"/></g></g></svg>