<?xml version="1.0" encoding="utf-8"?>
<!-- Generator: Adobe Illustrator 25.0.1, SVG Export Plug-In . SVG Version: 6.00 Build 0)  -->
<svg version="1.1" id="Calque_1" focusable="false" xmlns="http://www.w3.org/2000/svg" xmlns:xlink="http://www.w3.org/1999/xlink"
	 x="0px" y="0px" viewBox="0 0 1549.3 1549.3" style="enable-background:new 0 0 1549.3 1549.3;" xml:space="preserve">
<style type="text/css">
	.st0{opacity:0.1;fill:#FFFFFF;}
</style>
<path class="st0" d="M969.6,863.7h-390c-8.3,0-15,6.8-15,15v30c0,8.2,6.8,15,15,15h390c8.2,0,15-6.8,15-15v-30
	C984.6,870.5,977.9,863.7,969.6,863.7z M1029.6,563.7c-24.8,0-45,20.2-45,45c0,6.7,1.5,12.8,4.1,18.6L920.9,668
	c-14.4,8.6-33.1,3.8-41.4-10.9L803,523.4c10-8.3,16.6-20.6,16.6-34.7c0-24.8-20.2-45-45-45s-45,20.2-45,45
	c0,14.1,6.6,26.4,16.6,34.7l-76.4,133.7c-8.3,14.6-27.1,19.5-41.4,10.9l-67.8-40.7c2.5-5.6,4.1-11.9,4.1-18.6c0-24.8-20.2-45-45-45
	s-45.1,20.2-45.1,45s20.2,45,45,45c2.4,0,4.9-0.4,7.2-0.8l67.8,180.8h360l67.8-180.8c2.3,0.4,4.8,0.8,7.2,0.8c24.8,0,45-20.2,45-45
	S1054.5,563.7,1029.6,563.7z"/>
</svg>
